# xmcd CD database file
#
# Track frame offsets:
#	150
#	17245
#	32710
#	53490
#	71645
#	87425
#	104967
#	128107
#	144915
#	160405
#	183882
#
# Disc length: 2600 seconds
#
# Revision: 4
# Processed by: cddbd v1.5.2PL0 Copyright (c) Steve Scherf et al.
# Submitted via: CDex 1.51
#
DISCID=960a260b
DTITLE=David Gates - Love Is Always Seventeen
DYEAR=1994
DGENRE=Rock
TTITLE0=Avenue Of Love
TTITLE1=Love Is Always Seventeen
TTITLE2=Ordinary Man
TTITLE3=I Will Wait For You
TTITLE4=Save This Dance For Me
TTITLE5=No Secrets In A Small Town
TTITLE6=Heart, Its All Over
TTITLE7=I Don't Want To Share Your Love
TTITLE8=I Can't Find The Words To Say Goodbye
TTITLE9=Dear World
TTITLE10=Thankin' You Sweet Baby James
EXTD=YEAR: 1994
EXTT0=
EXTT1=
EXTT2=
EXTT3=
EXTT4=
EXTT5=
EXTT6=
EXTT7=
EXTT8=
EXTT9=
EXTT10=
PLAYORDER=
